<svg xmlns="http://www.w3.org/2000/svg" viewBox="0 0 860 300" font-family="-apple-system,Segoe UI,Roboto,sans-serif"><defs><marker id="ar2563eb" markerWidth="9" markerHeight="9" refX="7.5" refY="3" orient="auto"><path d="M0,0 L8,3 L0,6 Z" fill="#2563eb"/></marker><marker id="ar7c3aed" markerWidth="9" markerHeight="9" refX="7.5" refY="3" orient="auto"><path d="M0,0 L8,3 L0,6 Z" fill="#7c3aed"/></marker><marker id="ardb2777" markerWidth="9" markerHeight="9" refX="7.5" refY="3" orient="auto"><path d="M0,0 L8,3 L0,6 Z" fill="#db2777"/></marker><marker id="ar0891b2" markerWidth="9" markerHeight="9" refX="7.5" refY="3" orient="auto"><path d="M0,0 L8,3 L0,6 Z" fill="#0891b2"/></marker><marker id="ar0c9f6e" markerWidth="9" markerHeight="9" refX="7.5" refY="3" orient="auto"><path d="M0,0 L8,3 L0,6 Z" fill="#0c9f6e"/></marker><marker id="ard97706" markerWidth="9" markerHeight="9" refX="7.5" refY="3" orient="auto"><path d="M0,0 L8,3 L0,6 Z" fill="#d97706"/></marker><marker id="ar8a909b" markerWidth="9" markerHeight="9" refX="7.5" refY="3" orient="auto"><path d="M0,0 L8,3 L0,6 Z" fill="#8a909b"/></marker><marker id="ar11181f" markerWidth="9" markerHeight="9" refX="7.5" refY="3" orient="auto"><path d="M0,0 L8,3 L0,6 Z" fill="#11181f"/></marker></defs><rect width="860" height="300" fill="#ffffff"/><text x="40" y="30" text-anchor="start" font-size="14" fill="#11181f" font-weight="700">El modelo con memoria (LSTM): procesa la secuencia paso a paso</text><rect x="82" y="238" width="156" height="40" rx="10" fill="#e7f7fb" stroke="#0891b2" stroke-width="1.3"/><text x="160" y="263" text-anchor="middle" font-size="11" fill="#11181f" font-weight="400">estado s₀ · acción a₀</text><line x1="160" y1="238" x2="160" y2="202" stroke="#41464f" stroke-width="1.6" marker-end="url(#ar41464f)"/><rect x="98" y="128" width="124" height="74" rx="12" fill="#e9fbf4" stroke="#0c9f6e" stroke-width="1.3"/><text x="160" y="160" text-anchor="middle" font-size="16" fill="#0c9f6e" font-weight="700">LSTM</text><text x="160" y="180" text-anchor="middle" font-size="9.3" fill="#41464f" font-weight="400">mismos pesos</text><line x1="160" y1="128" x2="160" y2="92" stroke="#41464f" stroke-width="1.6" marker-end="url(#ar41464f)"/><rect x="82" y="52" width="156" height="40" rx="10" fill="#f8fafc" stroke="#d3dbe8" stroke-width="1.3"/><text x="160" y="77" text-anchor="middle" font-size="11" fill="#11181f" font-weight="400">Δs₀, r₀, done₀</text><rect x="342" y="238" width="156" height="40" rx="10" fill="#e7f7fb" stroke="#0891b2" stroke-width="1.3"/><text x="420" y="263" text-anchor="middle" font-size="11" fill="#11181f" font-weight="400">estado s₁ · acción a₁</text><line x1="420" y1="238" x2="420" y2="202" stroke="#41464f" stroke-width="1.6" marker-end="url(#ar41464f)"/><rect x="358" y="128" width="124" height="74" rx="12" fill="#e9fbf4" stroke="#0c9f6e" stroke-width="1.3"/><text x="420" y="160" text-anchor="middle" font-size="16" fill="#0c9f6e" font-weight="700">LSTM</text><text x="420" y="180" text-anchor="middle" font-size="9.3" fill="#41464f" font-weight="400">mismos pesos</text><line x1="420" y1="128" x2="420" y2="92" stroke="#41464f" stroke-width="1.6" marker-end="url(#ar41464f)"/><rect x="342" y="52" width="156" height="40" rx="10" fill="#f8fafc" stroke="#d3dbe8" stroke-width="1.3"/><text x="420" y="77" text-anchor="middle" font-size="11" fill="#11181f" font-weight="400">Δs₁, r₁, done₁</text><rect x="602" y="238" width="156" height="40" rx="10" fill="#e7f7fb" stroke="#0891b2" stroke-width="1.3"/><text x="680" y="263" text-anchor="middle" font-size="11" fill="#11181f" font-weight="400">estado s₂ · acción a₂</text><line x1="680" y1="238" x2="680" y2="202" stroke="#41464f" stroke-width="1.6" marker-end="url(#ar41464f)"/><rect x="618" y="128" width="124" height="74" rx="12" fill="#e9fbf4" stroke="#0c9f6e" stroke-width="1.3"/><text x="680" y="160" text-anchor="middle" font-size="16" fill="#0c9f6e" font-weight="700">LSTM</text><text x="680" y="180" text-anchor="middle" font-size="9.3" fill="#41464f" font-weight="400">mismos pesos</text><line x1="680" y1="128" x2="680" y2="92" stroke="#41464f" stroke-width="1.6" marker-end="url(#ar41464f)"/><rect x="602" y="52" width="156" height="40" rx="10" fill="#f8fafc" stroke="#d3dbe8" stroke-width="1.3"/><text x="680" y="77" text-anchor="middle" font-size="11" fill="#11181f" font-weight="400">Δs₂, r₂, done₂</text><line x1="222" y1="165" x2="358" y2="165" stroke="#0c9f6e" stroke-width="2.4" marker-end="url(#ar0c9f6e)"/><text x="290.0" y="157" text-anchor="middle" font-size="10.5" fill="#0c9f6e" font-weight="700">h (memoria)</text><line x1="482" y1="165" x2="618" y2="165" stroke="#0c9f6e" stroke-width="2.4" marker-end="url(#ar0c9f6e)"/><text x="550.0" y="157" text-anchor="middle" font-size="10.5" fill="#0c9f6e" font-weight="700">h (memoria)</text><line x1="70" y1="165" x2="98" y2="165" stroke="#8a909b" stroke-width="2" stroke-dasharray="3,3" marker-end="url(#ar8a909b)"/><text x="30" y="169" text-anchor="start" font-size="9.5" fill="#8a909b" font-weight="400">h₀=0</text><text x="430" y="295" text-anchor="middle" font-size="11" fill="#41464f" font-weight="400">Una sola red reutilizada en cada paso; el estado oculto h arrastra todo lo ya visto, así la trayectoria imaginada es coherente.</text></svg>