<svg xmlns="http://www.w3.org/2000/svg" viewBox="0 0 980 250" font-family="-apple-system,Segoe UI,Roboto,Helvetica,Arial,sans-serif" style="width:100%;height:auto"><defs><marker id="ah-6b7280" markerWidth="9" markerHeight="9" refX="7" refY="3" orient="auto"><path d="M0,0 L7,3 L0,6 Z" fill="#6b7280"/></marker><marker id="ah-2563eb" markerWidth="9" markerHeight="9" refX="7" refY="3" orient="auto"><path d="M0,0 L7,3 L0,6 Z" fill="#2563eb"/></marker><marker id="ah-0c9f6e" markerWidth="9" markerHeight="9" refX="7" refY="3" orient="auto"><path d="M0,0 L7,3 L0,6 Z" fill="#0c9f6e"/></marker><marker id="ah-991b1b" markerWidth="9" markerHeight="9" refX="7" refY="3" orient="auto"><path d="M0,0 L7,3 L0,6 Z" fill="#991b1b"/></marker><marker id="ah-b45309" markerWidth="9" markerHeight="9" refX="7" refY="3" orient="auto"><path d="M0,0 L7,3 L0,6 Z" fill="#b45309"/></marker><marker id="ah-6d28d9" markerWidth="9" markerHeight="9" refX="7" refY="3" orient="auto"><path d="M0,0 L7,3 L0,6 Z" fill="#6d28d9"/></marker><marker id="ah-0e7490" markerWidth="9" markerHeight="9" refX="7" refY="3" orient="auto"><path d="M0,0 L7,3 L0,6 Z" fill="#0e7490"/></marker><marker id="ah-dc2626" markerWidth="9" markerHeight="9" refX="7" refY="3" orient="auto"><path d="M0,0 L7,3 L0,6 Z" fill="#dc2626"/></marker><marker id="ah-334155" markerWidth="9" markerHeight="9" refX="7" refY="3" orient="auto"><path d="M0,0 L7,3 L0,6 Z" fill="#334155"/></marker></defs><rect width="980" height="250" fill="#ffffff"/><text x="40" y="42" font-family="-apple-system,Segoe UI,Roboto,Helvetica,Arial,sans-serif" font-size="20" font-weight="800" text-anchor="start" fill="#1f2937">La transición: el átomo de la experiencia</text><text x="40" y="64" font-family="-apple-system,Segoe UI,Roboto,Helvetica,Arial,sans-serif" font-size="13" font-weight="400" text-anchor="start" fill="#6b7280">El agente no aprende de «partidas»: aprende de millones de estas tuplas.</text><rect x="60" y="120" width="130" height="70" rx="12" fill="#eff4fe" stroke="#2563eb" stroke-width="1.6"/><text x="125" y="154" font-family="-apple-system,Segoe UI,Roboto,Helvetica,Arial,sans-serif" font-size="22" font-weight="800" text-anchor="middle" fill="#2563eb">s</text><text x="125" y="176" font-family="-apple-system,Segoe UI,Roboto,Helvetica,Arial,sans-serif" font-size="11" font-weight="500" text-anchor="middle" fill="#1f2937">estado actual</text><line x1="192" y1="155" x2="228" y2="155" stroke="#6b7280" stroke-width="2.4" marker-end="url(#ah-6b7280)"/><rect x="230" y="120" width="130" height="70" rx="12" fill="#f4effe" stroke="#6d28d9" stroke-width="1.6"/><text x="295" y="154" font-family="-apple-system,Segoe UI,Roboto,Helvetica,Arial,sans-serif" font-size="22" font-weight="800" text-anchor="middle" fill="#6d28d9">a</text><text x="295" y="176" font-family="-apple-system,Segoe UI,Roboto,Helvetica,Arial,sans-serif" font-size="11" font-weight="500" text-anchor="middle" fill="#1f2937">acción</text><line x1="362" y1="155" x2="398" y2="155" stroke="#6b7280" stroke-width="2.4" marker-end="url(#ah-6b7280)"/><rect x="400" y="120" width="130" height="70" rx="12" fill="#f0fdf9" stroke="#0c9f6e" stroke-width="1.6"/><text x="465" y="154" font-family="-apple-system,Segoe UI,Roboto,Helvetica,Arial,sans-serif" font-size="22" font-weight="800" text-anchor="middle" fill="#0c9f6e">r</text><text x="465" y="176" font-family="-apple-system,Segoe UI,Roboto,Helvetica,Arial,sans-serif" font-size="11" font-weight="500" text-anchor="middle" fill="#1f2937">recompensa</text><line x1="532" y1="155" x2="568" y2="155" stroke="#6b7280" stroke-width="2.4" marker-end="url(#ah-6b7280)"/><rect x="570" y="120" width="130" height="70" rx="12" fill="#ecfeff" stroke="#0e7490" stroke-width="1.6"/><text x="635" y="154" font-family="-apple-system,Segoe UI,Roboto,Helvetica,Arial,sans-serif" font-size="22" font-weight="800" text-anchor="middle" fill="#0e7490">s′</text><text x="635" y="176" font-family="-apple-system,Segoe UI,Roboto,Helvetica,Arial,sans-serif" font-size="11" font-weight="500" text-anchor="middle" fill="#1f2937">nuevo estado</text><line x1="702" y1="155" x2="738" y2="155" stroke="#6b7280" stroke-width="2.4" marker-end="url(#ah-6b7280)"/><rect x="740" y="120" width="130" height="70" rx="12" fill="#fff8ec" stroke="#b45309" stroke-width="1.6"/><text x="805" y="154" font-family="-apple-system,Segoe UI,Roboto,Helvetica,Arial,sans-serif" font-size="22" font-weight="800" text-anchor="middle" fill="#b45309">done</text><text x="805" y="176" font-family="-apple-system,Segoe UI,Roboto,Helvetica,Arial,sans-serif" font-size="11" font-weight="500" text-anchor="middle" fill="#1f2937">¿terminó?</text><rect x="40" y="212" width="900" height="28" rx="8" fill="#f8fafc" stroke="#d8dde6" stroke-width="1.2"/><text x="60" y="231" font-family="-apple-system,Segoe UI,Roboto,Helvetica,Arial,sans-serif" font-size="12.5" font-weight="600" text-anchor="start" fill="#1f2937">(s, a, r, s′, done)  —  en Arkanoid: «desde aquí, muevo la pala, gano +1, y queda este tablero»</text></svg>