<svg xmlns="http://www.w3.org/2000/svg" viewBox="0 0 980 330" font-family="-apple-system,Segoe UI,Roboto,Helvetica,Arial,sans-serif" style="width:100%;height:auto"><defs><marker id="ah-6b7280" markerWidth="9" markerHeight="9" refX="7" refY="3" orient="auto"><path d="M0,0 L7,3 L0,6 Z" fill="#6b7280"/></marker><marker id="ah-2563eb" markerWidth="9" markerHeight="9" refX="7" refY="3" orient="auto"><path d="M0,0 L7,3 L0,6 Z" fill="#2563eb"/></marker><marker id="ah-0c9f6e" markerWidth="9" markerHeight="9" refX="7" refY="3" orient="auto"><path d="M0,0 L7,3 L0,6 Z" fill="#0c9f6e"/></marker><marker id="ah-991b1b" markerWidth="9" markerHeight="9" refX="7" refY="3" orient="auto"><path d="M0,0 L7,3 L0,6 Z" fill="#991b1b"/></marker><marker id="ah-b45309" markerWidth="9" markerHeight="9" refX="7" refY="3" orient="auto"><path d="M0,0 L7,3 L0,6 Z" fill="#b45309"/></marker><marker id="ah-6d28d9" markerWidth="9" markerHeight="9" refX="7" refY="3" orient="auto"><path d="M0,0 L7,3 L0,6 Z" fill="#6d28d9"/></marker><marker id="ah-0e7490" markerWidth="9" markerHeight="9" refX="7" refY="3" orient="auto"><path d="M0,0 L7,3 L0,6 Z" fill="#0e7490"/></marker><marker id="ah-dc2626" markerWidth="9" markerHeight="9" refX="7" refY="3" orient="auto"><path d="M0,0 L7,3 L0,6 Z" fill="#dc2626"/></marker><marker id="ah-334155" markerWidth="9" markerHeight="9" refX="7" refY="3" orient="auto"><path d="M0,0 L7,3 L0,6 Z" fill="#334155"/></marker></defs><rect width="980" height="330" fill="#ffffff"/><text x="40" y="40" font-family="-apple-system,Segoe UI,Roboto,Helvetica,Arial,sans-serif" font-size="20" font-weight="800" text-anchor="start" fill="#1f2937">Los cinco, cara a cara: ficha funcional</text><rect x="30" y="78" width="150" height="40" rx="0" fill="#1f2937" stroke="#1f2937" stroke-width="0"/><text x="38" y="103" font-family="-apple-system,Segoe UI,Roboto,Helvetica,Arial,sans-serif" font-size="11.5" font-weight="800" text-anchor="start" fill="#fff">Algoritmo</text><rect x="180" y="78" width="150" height="40" rx="0" fill="#1f2937" stroke="#1f2937" stroke-width="0"/><text x="188" y="103" font-family="-apple-system,Segoe UI,Roboto,Helvetica,Arial,sans-serif" font-size="11.5" font-weight="800" text-anchor="start" fill="#fff">Qué aprende</text><rect x="330" y="78" width="90" height="40" rx="0" fill="#1f2937" stroke="#1f2937" stroke-width="0"/><text x="338" y="103" font-family="-apple-system,Segoe UI,Roboto,Helvetica,Arial,sans-serif" font-size="11.5" font-weight="800" text-anchor="start" fill="#fff">Replay</text><rect x="420" y="78" width="150" height="40" rx="0" fill="#1f2937" stroke="#1f2937" stroke-width="0"/><text x="428" y="103" font-family="-apple-system,Segoe UI,Roboto,Helvetica,Arial,sans-serif" font-size="11.5" font-weight="800" text-anchor="start" fill="#fff">Política</text><rect x="570" y="78" width="110" height="40" rx="0" fill="#1f2937" stroke="#1f2937" stroke-width="0"/><text x="578" y="103" font-family="-apple-system,Segoe UI,Roboto,Helvetica,Arial,sans-serif" font-size="11.5" font-weight="800" text-anchor="start" fill="#fff">Modelo</text><rect x="680" y="78" width="220" height="40" rx="0" fill="#1f2937" stroke="#1f2937" stroke-width="0"/><text x="688" y="103" font-family="-apple-system,Segoe UI,Roboto,Helvetica,Arial,sans-serif" font-size="11.5" font-weight="800" text-anchor="start" fill="#fff">Rasgo principal</text><rect x="30" y="118" width="150" height="40" rx="0" fill="#fff" stroke="#d8dde6" stroke-width="1"/><text x="38" y="143" font-family="-apple-system,Segoe UI,Roboto,Helvetica,Arial,sans-serif" font-size="12" font-weight="800" text-anchor="start" fill="#7c3aed">DQN</text><rect x="180" y="118" width="150" height="40" rx="0" fill="#fff" stroke="#d8dde6" stroke-width="1"/><text x="188" y="143" font-family="-apple-system,Segoe UI,Roboto,Helvetica,Arial,sans-serif" font-size="11" font-weight="400" text-anchor="start" fill="#1f2937">valor Q(s,a)</text><rect x="330" y="118" width="90" height="40" rx="0" fill="#fff" stroke="#d8dde6" stroke-width="1"/><text x="338" y="143" font-family="-apple-system,Segoe UI,Roboto,Helvetica,Arial,sans-serif" font-size="11" font-weight="400" text-anchor="start" fill="#1f2937">sí</text><rect x="420" y="118" width="150" height="40" rx="0" fill="#fff" stroke="#d8dde6" stroke-width="1"/><text x="428" y="143" font-family="-apple-system,Segoe UI,Roboto,Helvetica,Arial,sans-serif" font-size="11" font-weight="400" text-anchor="start" fill="#1f2937">off-policy</text><rect x="570" y="118" width="110" height="40" rx="0" fill="#fff" stroke="#d8dde6" stroke-width="1"/><text x="578" y="143" font-family="-apple-system,Segoe UI,Roboto,Helvetica,Arial,sans-serif" font-size="11" font-weight="400" text-anchor="start" fill="#1f2937">no</text><rect x="680" y="118" width="220" height="40" rx="0" fill="#fff" stroke="#d8dde6" stroke-width="1"/><text x="688" y="143" font-family="-apple-system,Segoe UI,Roboto,Helvetica,Arial,sans-serif" font-size="11" font-weight="400" text-anchor="start" fill="#1f2937">cimiento simple y fiable</text><rect x="30" y="158" width="150" height="40" rx="0" fill="#f8fafc" stroke="#d8dde6" stroke-width="1"/><text x="38" y="183" font-family="-apple-system,Segoe UI,Roboto,Helvetica,Arial,sans-serif" font-size="12" font-weight="800" text-anchor="start" fill="#2563eb">PPO</text><rect x="180" y="158" width="150" height="40" rx="0" fill="#f8fafc" stroke="#d8dde6" stroke-width="1"/><text x="188" y="183" font-family="-apple-system,Segoe UI,Roboto,Helvetica,Arial,sans-serif" font-size="11" font-weight="400" text-anchor="start" fill="#1f2937">política (actor)</text><rect x="330" y="158" width="90" height="40" rx="0" fill="#f8fafc" stroke="#d8dde6" stroke-width="1"/><text x="338" y="183" font-family="-apple-system,Segoe UI,Roboto,Helvetica,Arial,sans-serif" font-size="11" font-weight="400" text-anchor="start" fill="#1f2937">no</text><rect x="420" y="158" width="150" height="40" rx="0" fill="#f8fafc" stroke="#d8dde6" stroke-width="1"/><text x="428" y="183" font-family="-apple-system,Segoe UI,Roboto,Helvetica,Arial,sans-serif" font-size="11" font-weight="400" text-anchor="start" fill="#1f2937">on-policy</text><rect x="570" y="158" width="110" height="40" rx="0" fill="#f8fafc" stroke="#d8dde6" stroke-width="1"/><text x="578" y="183" font-family="-apple-system,Segoe UI,Roboto,Helvetica,Arial,sans-serif" font-size="11" font-weight="400" text-anchor="start" fill="#1f2937">no</text><rect x="680" y="158" width="220" height="40" rx="0" fill="#f8fafc" stroke="#d8dde6" stroke-width="1"/><text x="688" y="183" font-family="-apple-system,Segoe UI,Roboto,Helvetica,Arial,sans-serif" font-size="11" font-weight="400" text-anchor="start" fill="#1f2937">el mejor y más fiable (91%)</text><rect x="30" y="198" width="150" height="40" rx="0" fill="#fff" stroke="#d8dde6" stroke-width="1"/><text x="38" y="223" font-family="-apple-system,Segoe UI,Roboto,Helvetica,Arial,sans-serif" font-size="12" font-weight="800" text-anchor="start" fill="#db2777">SAC</text><rect x="180" y="198" width="150" height="40" rx="0" fill="#fff" stroke="#d8dde6" stroke-width="1"/><text x="188" y="223" font-family="-apple-system,Segoe UI,Roboto,Helvetica,Arial,sans-serif" font-size="11" font-weight="400" text-anchor="start" fill="#1f2937">política + entropía</text><rect x="330" y="198" width="90" height="40" rx="0" fill="#fff" stroke="#d8dde6" stroke-width="1"/><text x="338" y="223" font-family="-apple-system,Segoe UI,Roboto,Helvetica,Arial,sans-serif" font-size="11" font-weight="400" text-anchor="start" fill="#1f2937">sí</text><rect x="420" y="198" width="150" height="40" rx="0" fill="#fff" stroke="#d8dde6" stroke-width="1"/><text x="428" y="223" font-family="-apple-system,Segoe UI,Roboto,Helvetica,Arial,sans-serif" font-size="11" font-weight="400" text-anchor="start" fill="#1f2937">off-policy</text><rect x="570" y="198" width="110" height="40" rx="0" fill="#fff" stroke="#d8dde6" stroke-width="1"/><text x="578" y="223" font-family="-apple-system,Segoe UI,Roboto,Helvetica,Arial,sans-serif" font-size="11" font-weight="400" text-anchor="start" fill="#1f2937">no</text><rect x="680" y="198" width="220" height="40" rx="0" fill="#fff" stroke="#d8dde6" stroke-width="1"/><text x="688" y="223" font-family="-apple-system,Segoe UI,Roboto,Helvetica,Arial,sans-serif" font-size="11" font-weight="400" text-anchor="start" fill="#1f2937">estable, pero el más caro</text><rect x="30" y="238" width="150" height="40" rx="0" fill="#f8fafc" stroke="#d8dde6" stroke-width="1"/><text x="38" y="263" font-family="-apple-system,Segoe UI,Roboto,Helvetica,Arial,sans-serif" font-size="12" font-weight="800" text-anchor="start" fill="#059669">World Model</text><rect x="180" y="238" width="150" height="40" rx="0" fill="#f8fafc" stroke="#d8dde6" stroke-width="1"/><text x="188" y="263" font-family="-apple-system,Segoe UI,Roboto,Helvetica,Arial,sans-serif" font-size="11" font-weight="400" text-anchor="start" fill="#1f2937">Q + modelo</text><rect x="330" y="238" width="90" height="40" rx="0" fill="#f8fafc" stroke="#d8dde6" stroke-width="1"/><text x="338" y="263" font-family="-apple-system,Segoe UI,Roboto,Helvetica,Arial,sans-serif" font-size="11" font-weight="400" text-anchor="start" fill="#1f2937">sí</text><rect x="420" y="238" width="150" height="40" rx="0" fill="#f8fafc" stroke="#d8dde6" stroke-width="1"/><text x="428" y="263" font-family="-apple-system,Segoe UI,Roboto,Helvetica,Arial,sans-serif" font-size="11" font-weight="400" text-anchor="start" fill="#1f2937">off-policy</text><rect x="570" y="238" width="110" height="40" rx="0" fill="#f8fafc" stroke="#d8dde6" stroke-width="1"/><text x="578" y="263" font-family="-apple-system,Segoe UI,Roboto,Helvetica,Arial,sans-serif" font-size="11" font-weight="400" text-anchor="start" fill="#1f2937">sí</text><rect x="680" y="238" width="220" height="40" rx="0" fill="#f8fafc" stroke="#d8dde6" stroke-width="1"/><text x="688" y="263" font-family="-apple-system,Segoe UI,Roboto,Helvetica,Arial,sans-serif" font-size="11" font-weight="400" text-anchor="start" fill="#1f2937">eficiente, techo ~55%</text><rect x="30" y="278" width="150" height="40" rx="0" fill="#fff" stroke="#d8dde6" stroke-width="1"/><text x="38" y="303" font-family="-apple-system,Segoe UI,Roboto,Helvetica,Arial,sans-serif" font-size="12" font-weight="800" text-anchor="start" fill="#b45309">WM-RNN</text><rect x="180" y="278" width="150" height="40" rx="0" fill="#fff" stroke="#d8dde6" stroke-width="1"/><text x="188" y="303" font-family="-apple-system,Segoe UI,Roboto,Helvetica,Arial,sans-serif" font-size="11" font-weight="400" text-anchor="start" fill="#1f2937">Q + modelo LSTM</text><rect x="330" y="278" width="90" height="40" rx="0" fill="#fff" stroke="#d8dde6" stroke-width="1"/><text x="338" y="303" font-family="-apple-system,Segoe UI,Roboto,Helvetica,Arial,sans-serif" font-size="11" font-weight="400" text-anchor="start" fill="#1f2937">sí</text><rect x="420" y="278" width="150" height="40" rx="0" fill="#fff" stroke="#d8dde6" stroke-width="1"/><text x="428" y="303" font-family="-apple-system,Segoe UI,Roboto,Helvetica,Arial,sans-serif" font-size="11" font-weight="400" text-anchor="start" fill="#1f2937">off-policy</text><rect x="570" y="278" width="110" height="40" rx="0" fill="#fff" stroke="#d8dde6" stroke-width="1"/><text x="578" y="303" font-family="-apple-system,Segoe UI,Roboto,Helvetica,Arial,sans-serif" font-size="11" font-weight="400" text-anchor="start" fill="#1f2937">sí</text><rect x="680" y="278" width="220" height="40" rx="0" fill="#fff" stroke="#d8dde6" stroke-width="1"/><text x="688" y="303" font-family="-apple-system,Segoe UI,Roboto,Helvetica,Arial,sans-serif" font-size="11" font-weight="400" text-anchor="start" fill="#1f2937">memoria que no ayuda aquí</text></svg>