<svg xmlns="http://www.w3.org/2000/svg" viewBox="0 0 980 300" font-family="-apple-system,Segoe UI,Roboto,Helvetica,Arial,sans-serif" style="width:100%;height:auto"><defs><marker id="ah-6b7280" markerWidth="9" markerHeight="9" refX="7" refY="3" orient="auto"><path d="M0,0 L7,3 L0,6 Z" fill="#6b7280"/></marker><marker id="ah-2563eb" markerWidth="9" markerHeight="9" refX="7" refY="3" orient="auto"><path d="M0,0 L7,3 L0,6 Z" fill="#2563eb"/></marker><marker id="ah-0c9f6e" markerWidth="9" markerHeight="9" refX="7" refY="3" orient="auto"><path d="M0,0 L7,3 L0,6 Z" fill="#0c9f6e"/></marker><marker id="ah-991b1b" markerWidth="9" markerHeight="9" refX="7" refY="3" orient="auto"><path d="M0,0 L7,3 L0,6 Z" fill="#991b1b"/></marker><marker id="ah-b45309" markerWidth="9" markerHeight="9" refX="7" refY="3" orient="auto"><path d="M0,0 L7,3 L0,6 Z" fill="#b45309"/></marker><marker id="ah-6d28d9" markerWidth="9" markerHeight="9" refX="7" refY="3" orient="auto"><path d="M0,0 L7,3 L0,6 Z" fill="#6d28d9"/></marker><marker id="ah-0e7490" markerWidth="9" markerHeight="9" refX="7" refY="3" orient="auto"><path d="M0,0 L7,3 L0,6 Z" fill="#0e7490"/></marker><marker id="ah-dc2626" markerWidth="9" markerHeight="9" refX="7" refY="3" orient="auto"><path d="M0,0 L7,3 L0,6 Z" fill="#dc2626"/></marker><marker id="ah-334155" markerWidth="9" markerHeight="9" refX="7" refY="3" orient="auto"><path d="M0,0 L7,3 L0,6 Z" fill="#334155"/></marker></defs><rect width="980" height="300" fill="#ffffff"/><text x="40" y="42" font-family="-apple-system,Segoe UI,Roboto,Helvetica,Arial,sans-serif" font-size="20" font-weight="800" text-anchor="start" fill="#1f2937">Cómo leer las curvas en vivo (cuatro formas)</text><rect x="40" y="92" width="215" height="160" rx="10" fill="#fff" stroke="#d8dde6" stroke-width="1.3"/><polyline points="54,215 110,176 166,149 204,140 241,138" fill="none" stroke="#0c9f6e" stroke-width="2.6"/><text x="54" y="242" font-family="-apple-system,Segoe UI,Roboto,Helvetica,Arial,sans-serif" font-size="12.5" font-weight="800" text-anchor="start" fill="#0c9f6e">Sana</text><text x="243" y="242" font-family="-apple-system,Segoe UI,Roboto,Helvetica,Arial,sans-serif" font-size="10" font-weight="400" text-anchor="end" fill="#6b7280">sube y se estabiliza</text><rect x="265" y="92" width="215" height="160" rx="10" fill="#fff" stroke="#d8dde6" stroke-width="1.3"/><polyline points="279,215 335,160 372,149 410,182 466,210" fill="none" stroke="#b45309" stroke-width="2.6"/><text x="279" y="242" font-family="-apple-system,Segoe UI,Roboto,Helvetica,Arial,sans-serif" font-size="12.5" font-weight="800" text-anchor="start" fill="#b45309">Colapso</text><text x="468" y="242" font-family="-apple-system,Segoe UI,Roboto,Helvetica,Arial,sans-serif" font-size="10" font-weight="400" text-anchor="end" fill="#6b7280">sube y se desploma</text><rect x="490" y="92" width="215" height="160" rx="10" fill="#fff" stroke="#d8dde6" stroke-width="1.3"/><polyline points="504,171 541,149 569,182 598,154 626,184 654,160 691,176" fill="none" stroke="#2563eb" stroke-width="2.6"/><text x="504" y="242" font-family="-apple-system,Segoe UI,Roboto,Helvetica,Arial,sans-serif" font-size="12.5" font-weight="800" text-anchor="start" fill="#2563eb">Ruido</text><text x="693" y="242" font-family="-apple-system,Segoe UI,Roboto,Helvetica,Arial,sans-serif" font-size="10" font-weight="400" text-anchor="end" fill="#6b7280">oscila sin tendencia</text><rect x="715" y="92" width="215" height="160" rx="10" fill="#fff" stroke="#d8dde6" stroke-width="1.3"/><polyline points="729,193 822,191 916,192" fill="none" stroke="#6b7280" stroke-width="2.6"/><text x="729" y="242" font-family="-apple-system,Segoe UI,Roboto,Helvetica,Arial,sans-serif" font-size="12.5" font-weight="800" text-anchor="start" fill="#6b7280">Estancada</text><text x="918" y="242" font-family="-apple-system,Segoe UI,Roboto,Helvetica,Arial,sans-serif" font-size="10" font-weight="400" text-anchor="end" fill="#6b7280">plana, no aprende</text></svg>